<?xml version="1.0" encoding="UTF-8" standalone="no"?>
<!-- Created with Inkscape (http://www.inkscape.org/) -->

<svg
   xmlns:dc="http://purl.org/dc/elements/1.1/"
   xmlns:cc="http://creativecommons.org/ns#"
   xmlns:rdf="http://www.w3.org/1999/02/22-rdf-syntax-ns#"
   xmlns:svg="http://www.w3.org/2000/svg"
   xmlns="http://www.w3.org/2000/svg"
   xmlns:xlink="http://www.w3.org/1999/xlink"
   xmlns:sodipodi="http://sodipodi.sourceforge.net/DTD/sodipodi-0.dtd"
   xmlns:inkscape="http://www.inkscape.org/namespaces/inkscape"
   width="1144"
   height="1603"
   viewBox="0 0 302.68333 424.1271"
   version="1.1"
   id="svg821"
   sodipodi:docname="Multimedios Canal Seis Logo.svg"
   inkscape:version="0.92.4 (5da689c313, 2019-01-14)">
  <defs
     id="defs815">
    <linearGradient
       inkscape:collect="always"
       id="linearGradient2045">
      <stop
         style="stop-color:#a7a8a7;stop-opacity:1;"
         offset="0"
         id="stop2041" />
      <stop
         style="stop-color:#a7a8a7;stop-opacity:0;"
         offset="1"
         id="stop2043" />
    </linearGradient>
    <linearGradient
       inkscape:collect="always"
       xlink:href="#linearGradient2045"
       id="linearGradient2047"
       x1="0.019209674"
       y1="85.281565"
       x2="302.64999"
       y2="85.281565"
       gradientUnits="userSpaceOnUse" />
  </defs>
  <sodipodi:namedview
     id="base"
     pagecolor="#ffffff"
     bordercolor="#666666"
     borderopacity="1.0"
     inkscape:pageopacity="0.0"
     inkscape:pageshadow="2"
     inkscape:zoom="1.4"
     inkscape:cx="296.29298"
     inkscape:cy="476.12452"
     inkscape:document-units="mm"
     inkscape:current-layer="layer1"
     showgrid="false"
     units="px"
     inkscape:pagecheckerboard="true"
     objecttolerance="10000"
     inkscape:window-width="1920"
     inkscape:window-height="1027"
     inkscape:window-x="-8"
     inkscape:window-y="-8"
     inkscape:window-maximized="1" />
  <metadata
     id="metadata818">
    <rdf:RDF>
      <cc:Work
         rdf:about="">
        <dc:format>image/svg+xml</dc:format>
        <dc:type
           rdf:resource="http://purl.org/dc/dcmitype/StillImage" />
        <dc:title></dc:title>
      </cc:Work>
    </rdf:RDF>
  </metadata>
  <g
     inkscape:label="Layer 1"
     inkscape:groupmode="layer"
     id="layer1"
     transform="translate(0,127.1271)">
    <g
       id="g1388">
      <path
         style="fill:#ffffff;stroke-width:0.26458332;fill-opacity:0"
         d="M 0.04730625,85.26456 V -126.79898 H 151.38897 302.73063 V 85.26456 297.3281 H 151.38897 0.04730625 Z"
         id="path1404"
         inkscape:connector-curvature="0" />
      <path
         style="fill:url(#linearGradient2047);stroke-width:0.26458332;fill-opacity:1"
         d="M 144.37751,297.05053 C 110.75583,295.50163 79.305484,283.10614 53.228554,261.12604 48.840246,257.42716 39.230861,247.77995 35.657091,243.48539 22.925604,228.18615 13.649741,211.57683 7.5846945,193.21911 -0.02420327,170.18845 -1.9435646,145.12503 2.0528625,120.98331 8.3390351,83.00963 29.186495,48.531035 59.886391,25.335274 c 6.224423,-4.702958 11.124377,-7.92258 17.81612,-11.706479 2.037292,-1.152001 3.466042,-2.027214 3.175,-1.944915 -1.495144,0.422788 -63.462396,16.330557 -64.14947,16.467971 l -0.805735,0.161147 0.0037,-46.930468 0.0037,-46.930469 115.023844,-30.602094 c 63.26312,-16.831157 115.04557,-30.581007 115.0721,-30.555227 0.0265,0.0258 -0.2333,9.74673 -0.57741,21.60211 -0.34411,11.855387 -0.60395,21.570141 -0.57742,21.588347 0.0265,0.0182 1.77466,-0.360916 3.88471,-0.842489 2.11005,-0.481574 3.92608,-0.881552 4.03561,-0.888847 0.10954,-0.0073 0.16907,21.497616 0.13229,47.788684 l -0.0669,47.801945 -12.03854,2.323913 c -6.6212,1.278151 -12.27667,2.363985 -12.56771,2.412962 -0.41732,0.07023 -0.25601,0.254665 0.76317,0.872583 22.13984,13.423098 40.15014,31.651969 53.05636,53.700195 21.79711,37.236887 26.55464,82.687587 12.95715,123.785207 -3.98034,12.03039 -10.09962,24.68472 -17.09989,35.36167 -22.23452,33.91249 -57.23365,57.55703 -96.90491,65.46651 -8.16448,1.6278 -14.41453,2.37273 -23.41563,2.79083 -6.06349,0.28167 -6.95672,0.28114 -13.22916,-0.008 z m 24.47396,-22.06882 c 22.64667,-3.05604 41.40794,-11.67305 55.03745,-25.27861 13.10776,-13.08473 20.98599,-30.08561 23.72472,-51.19687 0.69072,-5.3244 0.69114,-21.06057 7.9e-4,-26.59063 -2.4514,-19.63393 -9.27608,-38.70275 -18.98618,-53.04896 -12.74926,-18.83644 -28.70626,-29.194159 -49.19345,-31.931567 -3.77097,-0.503862 -13.46825,-0.423373 -17.19792,0.142743 -21.56056,3.272623 -38.80927,14.824874 -47.92164,32.095344 -1.34127,2.54209 -2.21921,3.79452 -2.65989,3.79452 -0.46483,0 -0.0682,-13.58915 0.58307,-19.97604 2.83628,-27.815915 16.88536,-50.769842 39.44683,-64.449761 6.46883,-3.922307 10.8005,-5.897371 24.44226,-11.144654 4.51114,-1.735207 8.30332,-3.254063 8.42706,-3.375237 0.12375,-0.121171 -1.20981,-5.798352 -2.96346,-12.615952 -1.75364,-6.8176036 -4.21098,-16.443767 -5.46074,-21.3914753 -1.24976,-4.9477087 -2.32007,-9.1357687 -2.37846,-9.3068037 -0.16306,-0.477578 -2.52874,0.15489 -10.45669,2.795612 -16.97605,5.654548 -28.68845,11.2621426 -42.33334,20.2681042 C 112.68304,9.2357169 106.28028,14.404485 99.164775,21.367686 88.050198,32.244352 79.685447,43.627385 72.29057,57.938997 60.767078,80.24089 55.019122,103.14845 54.380261,129.31768 c -0.744471,30.49546 7.057726,66.08289 19.88481,90.69875 6.127284,11.75858 12.813805,20.95598 21.685075,29.82806 6.920094,6.92076 12.341534,11.09414 19.883554,15.30626 9.39422,5.2465 21.86951,9.07999 33.17402,10.19389 3.88357,0.38267 15.95441,0.1619 19.84375,-0.36293 z m -6.76021,-39.95275 c -7.12974,-1.29516 -13.76787,-5.26605 -20.64313,-12.34855 -12.82063,-13.2071 -21.27361,-36.68522 -20.37288,-56.58564 0.31702,-7.004 1.21346,-12.20166 2.98897,-17.33021 3.99546,-11.54094 11.07669,-19.17014 20.0487,-21.60017 3.22534,-0.87356 8.33654,-0.81984 11.90625,0.12515 3.29703,0.8728 8.11855,3.25069 11.4882,5.66578 13.6019,9.74875 23.8077,29.02277 26.65417,50.33736 0.58307,4.36611 0.66671,14.74201 0.14822,18.38855 -1.26095,8.86835 -3.61851,15.60634 -7.61644,21.76798 -1.9782,3.04885 -5.93021,6.93973 -8.71666,8.58187 -4.7589,2.80455 -10.73808,3.93295 -15.8854,2.99788 z"
         id="path1402"
         inkscape:connector-curvature="0" />
      <path
         style="fill:#e7c232;stroke-width:0.26458332"
         d="M 138.73022,296.63823 C 96.867493,293.1316 58.669295,272.55601 32.435546,239.38221 16.176166,218.82146 5.4439411,193.86879 1.6540756,167.81456 0.49286774,159.8316 0.21904132,155.73281 0.20464598,146.11873 0.19059834,136.73686 0.36508333,133.7473 1.3826963,125.93446 7.0376566,82.51786 31.703111,43.408654 68.706678,19.186482 c 4.18433,-2.73902 8.456647,-5.280671 11.204953,-6.665955 0.778454,-0.39238 1.371386,-0.757407 1.317622,-0.81117 -0.05376,-0.05376 -14.620993,3.642418 -32.371621,8.213735 -17.750628,4.571318 -32.423025,8.314248 -32.605328,8.317622 -0.264581,0.0049 -0.317966,-9.455351 -0.264583,-46.886032 l 0.06688,-46.892172 114.961449,-30.603198 c 63.2288,-16.831762 114.97148,-30.585832 114.98373,-30.564602 0.0123,0.0212 -0.25974,9.72817 -0.60443,21.57097 -0.34469,11.842805 -0.5836,21.57549 -0.5309,21.62819 0.0833,0.0833 6.39462,-1.277633 7.66149,-1.652074 0.43977,-0.12998 0.46302,2.261041 0.46302,47.609585 v 47.746438 l -0.59531,0.145039 c -0.32742,0.07977 -5.95313,1.170659 -12.50156,2.424197 -6.54844,1.253538 -12.01301,2.308326 -12.1435,2.343976 -0.13048,0.03565 0.64342,0.584668 1.71979,1.220038 9.1189,5.382789 18.91953,12.988467 27.45583,21.306806 26.57901,25.900345 42.44364,59.960459 45.29096,97.236055 0.37803,4.94906 0.37668,17.03785 -0.003,21.96042 -2.49208,32.35714 -14.37352,61.59489 -35.10428,86.3844 -3.42511,4.09567 -10.93522,11.82391 -15.13061,15.57009 -23.11688,20.6416 -52.49,33.85386 -82.99408,37.33133 -8.90079,1.0147 -21.70656,1.23399 -30.25354,0.51806 z m 31.45887,-21.75981 c 18.84605,-2.82739 34.5675,-9.25571 47.37276,-19.37018 3.24844,-2.56585 9.44159,-8.71368 11.97821,-11.89056 8.32251,-10.4232 14.06008,-23.08069 16.80706,-37.07754 3.23437,-16.48026 2.66274,-33.34665 -1.72259,-50.82656 -6.14413,-24.49046 -18.51341,-44.96041 -34.11663,-56.459721 -8.97457,-6.614105 -18.73575,-10.565382 -30.41164,-12.310478 -3.65048,-0.545605 -14.54962,-0.468667 -18.38854,0.129805 -14.36186,2.238951 -26.78687,8.194182 -36.44811,17.469354 -4.24252,4.07299 -8.5919,9.84132 -10.93644,14.50438 -1.17514,2.33725 -2.33475,3.96582 -2.67436,3.75593 -0.45589,-0.28176 0.006,-13.19219 0.72557,-20.28875 2.76094,-27.221911 17.01081,-50.403678 39.29509,-63.925461 6.22563,-3.777617 12.79752,-6.688852 29.7497,-13.178612 1.89177,-0.72422 3.4229,-1.424006 3.4025,-1.555076 -0.0204,-0.131069 -1.55077,-6.12658 -3.40081,-13.32336 -1.85005,-7.1967809 -3.41069,-13.3284996 -3.46809,-13.6260421 -0.0574,-0.2975424 -1.04108,-4.1128632 -2.18595,-8.4784879 l -2.08158,-7.9375 -0.76324,0.0847 c -1.16146,0.128899 -10.57901,3.030825 -15.05074,4.637741 -10.52707,3.782893 -17.68778,7.0512723 -26.47903,12.0858856 C 104.68567,12.592322 86.734153,30.736139 73.153602,56.160394 62.946734,75.268753 57.22984,94.452954 54.900787,117.41143 c -0.58234,5.7404 -0.667946,24.73175 -0.13715,30.42709 2.52113,27.05134 8.73847,50.68821 18.456838,70.16861 13.739026,27.53976 33.552165,45.97408 57.659845,53.64723 5.51223,1.75448 11.24671,2.92674 18.65656,3.81387 0.50933,0.061 4.55745,0.0743 8.99584,0.0295 6.44592,-0.0649 8.79151,-0.18957 11.65637,-0.61936 z m -6.92728,-39.73714 c -7.89089,-0.92168 -17.19664,-6.7741 -24.36091,-15.32064 -7.80761,-9.31403 -14.21196,-23.71866 -16.59335,-37.32171 -1.64097,-9.37357 -1.5366,-19.90775 0.28033,-28.2939 2.50279,-11.55179 8.95826,-21.16207 16.89484,-25.1514 9.07369,-4.5609 18.7394,-2.98268 29.02911,4.73987 6.41208,4.81236 12.25005,12.14637 16.81058,21.11852 4.69465,9.236 7.45546,18.229 8.83458,28.77754 0.68365,5.22909 0.62348,14.4889 -0.1255,19.31458 -1.31098,8.44664 -3.57769,14.68361 -7.40928,20.38702 -4.83193,7.19243 -10.76584,10.94687 -18.56678,11.7474 -1.48479,0.15237 -2.7763,0.2614 -2.87002,0.24227 -0.0937,-0.019 -0.95934,-0.12692 -1.9236,-0.23955 z"
         id="path1400"
         inkscape:connector-curvature="0" />
      <path
         style="fill:#d4ae35;stroke-width:0.26458332"
         d="M 138.73022,296.63823 C 96.867493,293.1316 58.669295,272.55601 32.435546,239.38221 16.176166,218.82146 5.4439411,193.86879 1.6540756,167.81456 0.49286774,159.8316 0.21904132,155.73281 0.20464598,146.11873 0.19059834,136.73686 0.36508333,133.7473 1.3826963,125.93446 7.0183852,82.665817 31.457252,43.781024 68.309803,19.446432 c 2.401094,-1.585497 5.972969,-3.784036 7.9375,-4.88564 1.964531,-1.101605 4.345781,-2.456685 5.291666,-3.011286 2.175973,-1.275845 8.893469,-4.3793568 13.217871,-6.1067208 6.83735,-2.7311456 11.97357,-4.4010685 19.44323,-6.32152284 2.92474,-0.75195376 4.23315,-1.22200456 5.02708,-1.80600616 5.90838,-4.3460907 13.04548,-9.0044722 18.49513,-12.0717602 1.91413,-1.077346 3.65882,-2.071433 3.8771,-2.209077 0.21828,-0.137647 -0.60904,0.03712 -1.83849,0.388376 -2.44722,0.699167 -3.07547,0.771139 -3.3172,0.380019 -0.17778,-0.287658 -0.19698,-0.561587 -1.86016,-26.539584 -1.29254,-20.188878 -1.22883,-19.746193 -2.94508,-20.463291 -0.8234,-0.344037 -1.09214,-0.34141 -2.3454,0.02291 -0.82592,0.240099 -1.75097,0.746998 -2.22102,1.217049 -1.28357,1.283573 -1.43964,2.361451 -1.10738,7.648154 0.16035,2.551446 0.58706,9.580089 0.94823,15.619204 0.36118,6.039114 0.90393,13.92846 1.20611,17.531876 0.30218,3.603419 0.47664,6.780985 0.38768,7.061258 -0.19083,0.601255 -0.65451,0.763982 -5.65491,1.984558 -2.64333,0.645226 -3.93913,0.852069 -4.26048,0.68009 -0.56339,-0.301517 -0.45781,0.913445 -1.98922,-22.892157 -0.65528,-10.186459 -1.44095,-22.078185 -1.74592,-26.42606 -0.4624,-6.592284 -0.49577,-7.961397 -0.20094,-8.243432 0.44369,-0.424429 5.1672,-1.710716 6.28209,-1.710716 0.6958,0 0.95243,0.193058 1.58724,1.19404 0.41648,0.656723 0.90871,1.559738 1.09385,2.006696 l 0.33661,0.812654 0.86676,-1.871273 c 1.09277,-2.359234 3.161,-4.580978 5.26826,-5.659303 1.33901,-0.685199 1.96023,-0.829461 3.96875,-0.921639 1.96715,-0.09028 2.64152,-0.01119 3.87791,0.45475 3.73643,1.408118 5.71224,5.777934 6.16792,13.641366 0.0928,1.600729 0.40315,6.244167 0.68976,10.31875 0.2866,4.074583 0.8631,12.684191 1.28112,19.132465 0.41801,6.448272 0.80229,11.761227 0.85395,11.806566 0.0516,0.04534 1.59972,-0.583208 3.44014,-1.396775 l 3.34622,-1.479214 -1.14905,-1.278028 c -1.32092,-1.469183 -2.59862,-4.486597 -3.00756,-7.102652 -0.48722,-3.116892 -0.81917,-11.858768 -0.54851,-14.445131 0.5394,-5.15431 2.72826,-8.473598 7.07471,-10.728409 2.50987,-1.302049 4.12035,-1.618919 7.38204,-1.452452 1.50602,0.07686 2.73887,0.06328 2.73965,-0.03018 0.0116,-1.38099 -0.89792,-12.337426 -1.08366,-13.054187 -0.5185,-2.000848 -2.54119,-2.623053 -4.74264,-1.458899 -1.60038,0.846301 -2.16214,2.032108 -2.22988,4.707051 -0.0362,1.427982 -0.17624,2.232615 -0.43118,2.476825 -0.38453,0.36835 -8.46028,2.529065 -9.45248,2.529065 -0.46343,0 -0.57223,-0.223229 -0.73198,-1.501825 -0.21467,-1.718152 -10e-4,-5.420186 0.43411,-7.52058 0.84931,-4.100066 4.04937,-8.212328 7.89906,-10.150721 4.277,-2.153561 10.64189,-2.993634 13.67943,-1.805485 3.95971,1.54886 5.46904,4.410482 6.30861,11.960836 0.21979,1.976599 0.81365,10.082723 1.31968,18.013608 1.66158,26.041398 1.61772,25.099372 1.18725,25.498838 -0.21109,0.195881 -1.66491,0.689059 -3.23073,1.095952 -3.53713,0.919157 -3.79943,0.833683 -5.05825,-1.648289 l -0.91064,-1.795449 -0.77994,1.719792 c -0.96676,2.131745 -2.5616,4.157874 -3.95383,5.023056 l -1.05792,0.657434 0.88999,2.642743 c 0.48949,1.45351 0.85906,2.735506 0.82127,2.848883 -0.0378,0.113376 -2.09269,0.906108 -4.56643,1.761622 -11.62448,4.02018 -19.93251,7.7230102 -28.99238,12.9216969 C 104.61231,12.659499 86.760937,30.685993 73.153602,56.160394 62.946734,75.268753 57.22984,94.452954 54.900787,117.41143 c -0.58234,5.7404 -0.667946,24.73175 -0.13715,30.42709 1.489321,15.9802 4.046135,29.68231 8.121584,43.52396 6.395825,21.7225 15.823326,39.53753 28.6329,54.10729 14.304509,16.2701 32.310249,26.21182 53.256259,29.40499 3.66514,0.55875 5.00098,0.62522 12.56771,0.62522 6.80082,0 9.14342,-0.0958 11.90625,-0.48708 19.16086,-2.71338 35.30827,-9.23223 48.31351,-19.50466 3.24844,-2.56585 9.44159,-8.71368 11.97821,-11.89056 8.32251,-10.4232 14.06008,-23.08069 16.80706,-37.07754 3.23437,-16.48026 2.66274,-33.34665 -1.72259,-50.82656 -6.14413,-24.49046 -18.51341,-44.96041 -34.11663,-56.459721 -8.97457,-6.614105 -18.73575,-10.565382 -30.41164,-12.310478 -3.65048,-0.545605 -14.54962,-0.468667 -18.38854,0.129805 -14.36186,2.238951 -26.78687,8.194182 -36.44811,17.469354 -4.24252,4.07299 -8.5919,9.84132 -10.93644,14.50438 -1.17514,2.33725 -2.33475,3.96582 -2.67436,3.75593 -0.45589,-0.28176 0.006,-13.19219 0.72557,-20.28875 2.76094,-27.221911 17.01081,-50.403678 39.29509,-63.925461 6.22563,-3.777617 12.79752,-6.688852 29.7497,-13.178612 1.89177,-0.72422 3.4229,-1.424006 3.4025,-1.555076 -0.0204,-0.131069 -1.5477,-6.114687 -3.394,-13.296926 -1.8463,-7.1822415 -3.39652,-13.254429 -3.44492,-13.4937499 -0.0484,-0.2393235 -0.61819,-2.5380182 -1.2662,-5.1082177 -0.64801,-2.5701974 -1.10517,-4.7883104 -1.01591,-4.9291424 0.0893,-0.140835 15.30734,-4.031853 33.81797,-8.64671 l 33.65569,-8.39065 0.13066,-1.099997 c 0.0719,-0.604999 0.44378,-12.588695 0.82649,-26.630439 0.3827,-14.041742 0.7184,-25.553016 0.746,-25.58061 0.0276,-0.02759 1.8342,-0.453768 4.01469,-0.947057 l 3.96453,-0.89689 0.0669,47.621396 c 0.0368,26.191768 0.0302,47.658019 -0.0145,47.702782 -0.0448,0.04476 -5.67079,1.15874 -12.50228,2.47551 -6.8315,1.316768 -12.52766,2.427306 -12.65815,2.467861 -0.13048,0.04056 0.64343,0.593588 1.71979,1.228958 9.1189,5.382789 18.91953,12.988467 27.45583,21.306806 26.57902,25.900345 42.44365,59.960459 45.29097,97.236055 0.37803,4.94906 0.37668,17.03785 -0.003,21.96042 -2.49208,32.35714 -14.37352,61.59489 -35.10428,86.3844 -3.42511,4.09567 -10.93522,11.82391 -15.13061,15.57009 -23.11688,20.6416 -52.49,33.85386 -82.99408,37.33133 -8.90079,1.0147 -21.70656,1.23399 -30.25354,0.51806 z m 25.56207,-330.713381 c 1.86962,-0.781177 2.78212,-2.016834 3.06029,-4.144079 0.19242,-1.471483 -0.44167,-7.322973 -0.88288,-8.147383 -0.65598,-1.225714 -2.75906,-1.52795 -4.4974,-0.646327 -0.90353,0.458235 -2.02427,1.682464 -2.36442,2.582746 -0.54666,1.446864 -0.0464,8.508304 0.68389,9.654299 0.71401,1.120368 2.32207,1.402043 4.00052,0.700744 z m -1.03048,269.216431 c -7.89089,-0.92168 -17.19664,-6.7741 -24.36091,-15.32064 -7.80761,-9.31403 -14.21196,-23.71866 -16.59335,-37.32171 -1.64097,-9.37357 -1.5366,-19.90775 0.28033,-28.2939 2.50279,-11.55179 8.95826,-21.16207 16.89484,-25.1514 9.07369,-4.5609 18.7394,-2.98268 29.02911,4.73987 6.41208,4.81236 12.25005,12.14637 16.81058,21.11852 4.69465,9.236 7.45546,18.229 8.83458,28.77754 0.68365,5.22909 0.62348,14.4889 -0.1255,19.31458 -1.31098,8.44664 -3.57769,14.68361 -7.40928,20.38702 -4.83193,7.19243 -10.76584,10.94687 -18.56678,11.7474 -1.48479,0.15237 -2.7763,0.2614 -2.87002,0.24227 -0.0937,-0.019 -0.95934,-0.12692 -1.9236,-0.23955 z M 59.315396,4.5221966 C 54.924501,2.9859623 53.210671,-0.17091372 52.444845,-8.1333559 51.732608,-15.538665 49.729662,-47.284119 49.698748,-51.657314 c -0.03304,-4.674473 -0.0024,-4.990065 0.683342,-7.011458 1.733825,-5.11174 5.076716,-8.29627 10.657194,-10.152343 4.620947,-1.536933 8.664855,-1.704195 11.360906,-0.469903 4.391382,2.010442 5.767263,5.536901 6.415428,16.443079 0.216194,3.637722 0.193038,4.355939 -0.151548,4.700524 -0.25002,0.250021 -8.676338,2.561672 -9.367752,2.569924 -0.743646,0.0089 -0.922758,-0.872429 -1.226825,-6.036468 -0.307785,-5.227193 -0.596694,-6.351601 -1.769264,-6.885861 -2.157229,-0.9829 -5.630523,0.887111 -6.078002,3.27238 -0.0969,0.516509 0.08032,4.954132 0.393813,9.861386 1.621415,25.380637 2.410442,36.2944062 2.674305,36.990734 0.511223,1.3491077 1.290662,1.9623854 2.48589,1.9559455 2.237359,-0.012065 4.444693,-1.6722064 4.809601,-3.6173305 0.09923,-0.528952 0.03149,-3.276444 -0.15055,-6.105538 -0.297598,-4.625144 -0.288682,-5.186098 0.08842,-5.563203 0.418431,-0.418431 8.257932,-2.680528 9.333307,-2.693136 0.311854,-0.0037 0.646189,0.1997 0.742968,0.451903 0.09678,0.252204 0.244999,3.734782 0.329375,7.739063 0.132088,6.26859 0.09224,7.5195452 -0.286724,9.0003017 -1.160727,4.535461 -3.748995,7.60806726 -8.26571,9.8124512 C 68.062648,4.7107228 62.280071,5.55944 59.315396,4.5221966 Z m 31.711597,-8.6895754 c -1.638752,-0.524764 -3.742097,-2.4541453 -4.553635,-4.1770194 -2.014529,-4.2767828 -2.852261,-15.0549878 -1.625766,-20.9170108 1.437105,-6.868634 7.15931,-10.931163 14.652103,-10.40239 l 2.221625,0.156784 -0.17653,-2.966297 c -0.35013,-5.883563 -0.75825,-9.861306 -1.09627,-10.684777 -0.753748,-1.836272 -2.823652,-2.135529 -4.973608,-0.719061 -1.314442,0.866 -1.76511,1.999981 -1.76511,4.441397 0,2.238581 -0.238268,2.642065 -1.797844,3.044478 -0.539154,0.139115 -2.386277,0.625745 -4.104719,1.081395 -4.054898,1.075174 -4.469735,1.029226 -4.754612,-0.526601 -0.276069,-1.507712 0.0047,-5.96157 0.498414,-7.906832 0.900681,-3.548618 3.144663,-6.873536 5.903232,-8.746844 3.373107,-2.290633 6.971416,-3.301434 11.796157,-3.313652 3.32597,-0.0084 3.48638,0.01722 4.85657,0.776142 1.63508,0.90565 2.69643,2.086147 3.6171,4.023148 1.47327,3.099609 1.46886,3.061316 2.90489,25.222205 0.51393,7.930885 1.11276,16.815914 1.33076,19.744505 0.21799,2.928593 0.32193,5.518626 0.23099,5.755632 -0.0936,0.243969 -0.81294,0.6097292 -1.65805,0.8430865 -0.82097,0.226695 -2.28593,0.6432523 -3.25546,0.9256818 -0.96953,0.2824295 -1.95789,0.4386368 -2.19636,0.347128 -0.23847,-0.091509 -0.85392,-1.0010642 -1.36767,-2.0212363 l -0.93409,-1.854857 -1.18514,2.0868009 c -1.51237,2.6629889 -2.96912,4.1506484 -5.088111,5.19607 -1.428536,0.7047812 -2.035056,0.8436319 -3.96875,0.9085739 -1.489326,0.050017 -2.709113,-0.059949 -3.510116,-0.3164496 z m 9.185897,-12.0083392 c 1.30374,-0.59213 2.12365,-1.577568 2.52813,-3.038533 0.43262,-1.562619 -0.10662,-7.852553 -0.77112,-8.994643 -1.39269,-2.393664 -6.034275,-0.901808 -6.976255,2.242248 -0.25822,0.86186 -0.25904,1.835809 -0.0039,4.660355 0.32348,3.581498 0.691095,4.837907 1.564349,5.346531 0.727612,0.423796 2.477654,0.3205 3.658826,-0.215958 z m 82.52893,-14.050785 c -0.0901,-0.145765 -0.80977,-10.057718 -1.59929,-22.026563 -0.78952,-11.968847 -1.85678,-28.131383 -2.37167,-35.916748 -1.16165,-17.564406 -1.12429,-16.585686 -0.65034,-17.035996 0.40914,-0.38873 6.86566,-2.27257 8.47278,-2.47213 0.62503,-0.0776 1.04979,0.0145 1.26553,0.27447 0.22144,0.26681 0.65946,5.63974 1.37694,16.890072 0.57871,9.074336 1.34577,20.606449 1.70457,25.626918 0.3588,5.020468 0.89676,12.938124 1.19547,17.594791 0.29871,4.656667 0.65687,9.6985 0.79592,11.204078 0.29364,3.179691 0.15512,3.615817 -1.26445,3.980965 -0.54323,0.139732 -2.6254,0.679556 -4.62704,1.199611 -4.04072,1.04984 -4.06755,1.054086 -4.29842,0.680532 z"
         id="path1398"
         inkscape:connector-curvature="0" />
      <path
         style="fill:#7f807f;stroke-width:0.26458332"
         d="M 138.73022,296.63823 C 96.867493,293.1316 58.669295,272.55601 32.435546,239.38221 16.176166,218.82146 5.4439411,193.86879 1.6540756,167.81456 0.49286774,159.8316 0.21904132,155.73281 0.20464598,146.11873 0.19059834,136.73686 0.36508333,133.7473 1.3826963,125.93446 7.0382572,82.513245 31.648075,43.49012 68.706678,19.180624 82.989722,9.8113127 99.60788,2.5829648 115.59551,-1.2144595 c 2.50977,-0.5961248 2.70458,-0.6979999 6.42471,-3.359613 4.90275,-3.5077373 11.63069,-7.8094315 16.36515,-10.4634985 2.04082,-1.144061 3.6833,-2.107401 3.64995,-2.140757 -0.0334,-0.03335 -1.1716,0.242983 -2.52943,0.614082 -2.14815,0.5871 -2.51822,0.625274 -2.84957,0.293926 -0.30071,-0.300702 -0.68047,-5.052552 -1.80549,-22.591244 -0.78358,-12.215744 -1.53658,-22.503154 -1.67333,-22.86091 -0.68286,-1.786435 -2.63019,-2.186472 -4.978,-1.022625 -1.01023,0.50079 -1.4194,0.908836 -1.91635,1.911088 l -0.63185,1.274347 0.97156,16.188153 c 0.53435,8.903486 1.21597,19.101678 1.5147,22.662652 l 0.54315,6.474495 -0.53588,0.433929 c -0.29473,0.238663 -2.29936,0.872088 -4.45473,1.407616 -2.15536,0.535527 -4.11465,1.032417 -4.35398,1.104201 -0.79511,0.238485 -1.20664,-0.567137 -1.38688,-2.714993 -0.0954,-1.136986 -0.76636,-11.294589 -1.491,-22.572453 -0.72463,-11.277865 -1.49776,-23.021039 -1.71807,-26.095941 -0.22031,-3.074903 -0.32693,-5.782612 -0.23694,-6.017131 0.2641,-0.688218 6.13408,-2.300874 7.06908,-1.942081 0.23611,0.09061 0.86579,1.031499 1.39928,2.090878 l 0.96999,1.926143 0.95755,-1.964624 c 1.28874,-2.644153 3.06677,-4.542123 5.27218,-5.627844 1.63319,-0.804018 1.9502,-0.866259 4.41105,-0.866071 2.37296,1.83e-4 2.79446,0.07564 4.01369,0.718495 3.22355,1.699672 4.8555,5.405093 5.37843,12.211957 0.33169,4.31768 1.68776,24.143287 2.36072,34.51376 0.27685,4.266306 0.55738,7.810932 0.62339,7.876948 0.066,0.06602 1.11963,-0.338532 2.34135,-0.898996 1.22172,-0.560464 2.79199,-1.235959 3.48948,-1.501098 l 1.26817,-0.482073 -0.89,-0.733613 c -1.06755,-0.879967 -2.32227,-3.167436 -3.05975,-5.578202 -1.12527,-3.678434 -1.60366,-15.509613 -0.75565,-18.688344 1.01937,-3.821097 3.08645,-6.550832 6.31993,-8.345948 2.6973,-1.497446 4.36125,-1.860695 7.71335,-1.683858 l 2.87918,0.151889 -0.15966,-1.901394 c -0.0878,-1.045765 -0.28674,-3.865925 -0.44206,-6.267018 -0.15532,-2.401094 -0.40303,-4.750716 -0.55046,-5.221383 -0.59123,-1.887429 -2.78888,-2.487303 -4.84522,-1.322554 -1.56246,0.885007 -2.03737,1.907563 -2.14922,4.6277 -0.0682,1.657564 -0.2062,2.387277 -0.49097,2.595509 -0.59288,0.433517 -9.07087,2.582138 -9.51543,2.411542 -0.86131,-0.330514 -0.86804,-6.048237 -0.011,-9.338654 1.01836,-3.909755 4.00268,-7.760948 7.38937,-9.535821 3.52918,-1.849543 8.97073,-2.944363 12.12791,-2.440085 3.03164,0.484222 5.38427,2.260047 6.64119,5.012928 1.39381,3.052712 1.69635,6.050449 3.49232,34.603642 0.9245,14.698162 0.97012,15.993951 0.5733,16.284114 -0.23712,0.173387 -1.736,0.649508 -3.33084,1.058045 -2.23004,0.571254 -3.02204,0.67732 -3.42945,0.459283 -0.29136,-0.155933 -0.93168,-1.060805 -1.42292,-2.010828 -0.49125,-0.950024 -0.95271,-1.724555 -1.02547,-1.721181 -0.0728,0.0034 -0.48741,0.806606 -0.92143,1.784958 -0.75231,1.69581 -3.21607,4.616577 -4.43741,5.260518 -0.43047,0.226954 -0.3971,0.443502 0.46103,2.991633 0.5088,1.510834 0.88073,2.791327 0.82651,2.845543 -0.0542,0.05422 -2.10715,0.79324 -4.56208,1.642274 -11.58845,4.007864 -19.90814,7.7168853 -28.95815,12.9099179 C 104.61231,12.659499 86.760937,30.685993 73.153602,56.160394 62.946734,75.268753 57.22984,94.452954 54.900787,117.41143 c -0.58234,5.7404 -0.667946,24.73175 -0.13715,30.42709 1.489321,15.9802 4.046135,29.68231 8.121584,43.52396 6.395825,21.7225 15.823326,39.53753 28.6329,54.10729 14.304509,16.2701 32.310249,26.21182 53.256259,29.40499 3.66514,0.55875 5.00098,0.62522 12.56771,0.62522 6.80082,0 9.14342,-0.0958 11.90625,-0.48708 19.16086,-2.71338 35.30827,-9.23223 48.31351,-19.50466 3.24844,-2.56585 9.44159,-8.71368 11.97821,-11.89056 8.32251,-10.4232 14.06008,-23.08069 16.80706,-37.07754 3.23437,-16.48026 2.66274,-33.34665 -1.72259,-50.82656 -6.14413,-24.49046 -18.51341,-44.96041 -34.11663,-56.459721 -8.97457,-6.614105 -18.73575,-10.565382 -30.41164,-12.310478 -3.65048,-0.545605 -14.54962,-0.468667 -18.38854,0.129805 -14.36186,2.238951 -26.78687,8.194182 -36.44811,17.469354 -4.24252,4.07299 -8.5919,9.84132 -10.93644,14.50438 -1.17514,2.33725 -2.33475,3.96582 -2.67436,3.75593 -0.45589,-0.28176 0.006,-13.19219 0.72557,-20.28875 2.76094,-27.221911 17.01081,-50.403678 39.29509,-63.925461 6.22563,-3.777617 12.79752,-6.688852 29.7497,-13.178612 1.89177,-0.72422 3.4229,-1.424006 3.4025,-1.555076 -0.0204,-0.131069 -1.55077,-6.12658 -3.40081,-13.32336 -1.85005,-7.1967809 -3.40801,-13.3284996 -3.46213,-13.6260421 -0.0541,-0.2975424 -0.5815,-2.6147262 -1.17193,-5.1492916 -0.59044,-2.5345683 -0.98032,-4.6911363 -0.86641,-4.7923713 0.29023,-0.257932 67.5406,-17.016532 67.68918,-16.86795 0.0667,0.06669 -7.07573,8.382551 -15.87203,18.479699 -8.79631,10.097148 -15.9537,18.3980399 -15.90531,18.4464243 0.0484,0.048387 1.73821,0.8579908 3.75516,1.799119 3.98584,1.8598277 10.05366,5.0716017 12.4685,6.5997377 0.8346,0.52814 2.77185,1.754799 4.30502,2.725909 8.91099,5.644245 16.67964,11.808685 24.5633,19.49105 26.57901,25.900345 42.44364,59.960459 45.29096,97.236055 0.37803,4.94906 0.37668,17.03785 -0.003,21.96042 -2.49208,32.35714 -14.37352,61.59489 -35.10428,86.3844 -3.42511,4.09567 -10.93522,11.82391 -15.13061,15.57009 -23.11688,20.6416 -52.49,33.85386 -82.99408,37.33133 -8.90079,1.0147 -21.70656,1.23399 -30.25354,0.51806 z m 26.46617,-331.079617 c 2.03525,-1.398858 2.50486,-3.120115 2.0622,-7.558635 -0.47532,-4.766136 -0.92043,-5.538992 -3.17046,-5.505048 -1.85035,0.02791 -3.47536,1.030592 -4.2442,2.618798 -0.55147,1.139187 -0.57907,1.440685 -0.40611,4.435509 0.25541,4.422357 0.48138,5.448904 1.36721,6.210861 0.62396,0.536708 0.94368,0.61444 2.12445,0.516523 0.8599,-0.07131 1.72438,-0.34512 2.26691,-0.718008 z m -1.93458,269.582667 c -7.89089,-0.92168 -17.19664,-6.7741 -24.36091,-15.32064 -7.80761,-9.31403 -14.21196,-23.71866 -16.59335,-37.32171 -1.64097,-9.37357 -1.5366,-19.90775 0.28033,-28.2939 2.50279,-11.55179 8.95826,-21.16207 16.89484,-25.1514 9.07369,-4.5609 18.7394,-2.98268 29.02911,4.73987 6.41208,4.81236 12.25005,12.14637 16.81058,21.11852 4.69465,9.236 7.45546,18.229 8.83458,28.77754 0.68365,5.22909 0.62348,14.4889 -0.1255,19.31458 -1.31098,8.44664 -3.57769,14.68361 -7.40928,20.38702 -4.83193,7.19243 -10.76584,10.94687 -18.56678,11.7474 -1.48479,0.15237 -2.7763,0.2614 -2.87002,0.24227 -0.0937,-0.019 -0.95934,-0.12692 -1.9236,-0.23955 z M 59.393303,4.4872928 C 54.872489,2.8711411 53.211935,-0.18189129 52.456934,-8.2656476 51.839793,-14.873328 49.523996,-50.246127 49.529547,-52.980231 c 0.0093,-4.560861 1.733785,-8.915352 4.680783,-11.819146 3.181527,-3.134889 8.711409,-5.205952 13.967182,-5.231021 2.322388,-0.01109 2.828512,0.07285 4.140189,0.686567 2.978277,1.393494 4.698333,3.883348 5.539163,8.018166 0.529285,2.602793 1.036272,8.066452 1.036272,11.167655 0,1.774529 -0.05402,1.973977 -0.595312,2.197965 -1.32434,0.548018 -8.964933,2.431238 -9.316559,2.296306 -0.485793,-0.186415 -0.591925,-0.926225 -0.929094,-6.476437 -0.346692,-5.706978 -0.753743,-6.663531 -2.833828,-6.659411 -2.323425,0.0046 -4.635886,1.651952 -4.993299,3.557129 -0.294698,1.570871 2.541762,45.060851 3.065854,47.0071846 0.347512,1.2905581 1.121598,1.8217091 2.654911,1.8217091 1.824892,0 3.388876,-0.9295844 4.193032,-2.4922109 l 0.651396,-1.2657848 -0.337716,-5.587212 c -0.330108,-5.461296 -0.325903,-5.596776 0.186481,-6.01168 0.288308,-0.23346 2.506387,-0.940776 4.92906,-1.571813 3.441189,-0.896334 4.474871,-1.07747 4.724865,-0.827952 0.739487,0.738076 0.978072,14.4188917 0.297463,17.0570044 -1.376018,5.3335899 -5.338595,9.0129413 -12.016003,11.1571616 -3.023254,0.9708118 -7.148401,1.1700113 -9.181084,0.4433438 z m 31.518351,-8.7992611 c -3.940326,-1.515954 -5.643946,-5.1565704 -6.484543,-13.8573957 -0.37483,-3.879773 -0.137809,-8.700299 0.562401,-11.438088 1.3204,-5.16272 4.725958,-8.539192 9.825254,-9.741345 1.899626,-0.447834 4.701963,-0.521078 5.974384,-0.156154 l 0.85815,0.246115 -2.6e-4,-1.106011 c -5.3e-4,-2.316467 -0.81026,-11.727778 -1.07928,-12.5451 -0.616043,-1.871638 -2.37585,-2.392383 -4.484643,-1.327054 -1.810387,0.914572 -2.373315,1.968082 -2.373315,4.441586 0,1.569181 -0.108294,2.174161 -0.463021,2.586676 -0.531214,0.617754 -8.122472,2.778905 -9.28725,2.643983 -0.640133,-0.07415 -0.719683,-0.217172 -0.92805,-1.6686 -0.310319,-2.16159 0.189273,-6.574361 1.01223,-8.940773 2.315699,-6.658795 8.551542,-10.533377 17.074429,-10.609035 2.93771,-0.02609 3.44329,0.03765 4.52433,0.570325 3.41562,1.683004 5.24874,5.413328 5.7804,11.762838 0.14957,1.786342 0.63156,8.843833 1.07109,15.683312 0.43952,6.839479 1.03557,15.760636 1.32454,19.824792 0.60235,8.4715195 0.67099,8.1203936 -1.6836,8.6118598 -0.74771,0.1560644 -2.06419,0.5025231 -2.92552,0.7699057 -0.86133,0.2673853 -1.76196,0.4349194 -2.00142,0.3723005 -0.23945,-0.062619 -0.88473,-1.0219928 -1.43395,-2.131944 l -0.99857,-2.018091 -0.99803,1.89665 c -0.54892,1.043157 -1.32388,2.3238515 -1.72213,2.8459855 -2.421052,3.1741666 -7.521317,4.6768623 -11.143626,3.2832622 z m 9.090496,-11.7729237 c 2.64364,-1.10431 3.20145,-2.753585 2.74088,-8.103896 -0.40436,-4.697294 -1.03781,-5.550355 -3.812539,-5.134258 -1.629719,0.24439 -2.843445,1.103034 -3.588559,2.5387 -0.576167,1.110147 -0.605856,1.386698 -0.450416,4.195395 0.233347,4.216419 0.528151,5.600896 1.345679,6.319658 0.813046,0.714819 2.318644,0.788561 3.764955,0.184401 z m 82.88959,-14.252543 c -0.20492,-0.246925 -0.75906,-7.125483 -1.6146,-20.042187 -4.02716,-60.801138 -3.70822,-54.613138 -2.83453,-54.995188 0.93114,-0.40716 8.08675,-2.37417 8.63679,-2.37417 0.27098,0 0.63011,0.16558 0.79807,0.36796 0.19627,0.2365 0.67934,6.26276 1.35207,16.867186 0.57568,9.074576 1.22699,18.94001 1.44734,21.923187 0.22036,2.983177 0.82041,11.733826 1.33345,19.445885 0.51304,7.712059 0.99737,14.43909 1.07629,14.948958 0.0884,0.571215 0.009,1.096087 -0.20573,1.367483 -0.21158,0.266857 -2.15942,0.918618 -4.94206,1.653646 -2.52605,0.667258 -4.62484,1.213194 -4.66395,1.213194 -0.0391,0 -0.21153,-0.16918 -0.38314,-0.375954 z"
         id="path1396"
         inkscape:connector-curvature="0" />
      <path
         style="fill:#ac9029;stroke-width:0.26458332"
         d="m 141.46709,296.79459 c -11.01151,-0.79446 -22.07701,-2.74626 -32.27916,-5.69364 C 61.325949,277.27385 23.012411,240.20194 7.5986031,192.80385 -4.0546486,156.96961 -2.005369,118.38437 13.383665,83.878725 18.806496,71.719529 26.511211,59.476467 35.655824,48.487477 39.366446,44.028462 49.495984,33.895923 53.890012,30.247885 72.484783,14.810027 93.72427,3.980457 115.59551,-1.2144595 c 2.50977,-0.5961248 2.70458,-0.6979999 6.42471,-3.359613 4.90275,-3.5077373 11.63069,-7.8094315 16.36515,-10.4634985 2.04082,-1.144061 3.6833,-2.107401 3.64995,-2.140757 -0.0334,-0.03335 -1.1716,0.242983 -2.52943,0.614082 -2.14815,0.5871 -2.51822,0.625274 -2.84957,0.293926 -0.30071,-0.300702 -0.68047,-5.052552 -1.80549,-22.591244 -0.78358,-12.215744 -1.53658,-22.503154 -1.67333,-22.86091 -0.68286,-1.786435 -2.63019,-2.186472 -4.978,-1.022625 -1.01023,0.50079 -1.4194,0.908836 -1.91635,1.911088 l -0.63185,1.274347 0.97156,16.188153 c 0.53435,8.903486 1.21597,19.101678 1.5147,22.662652 l 0.54315,6.474495 -0.53588,0.433929 c -0.29473,0.238663 -2.29936,0.872088 -4.45473,1.407616 -2.15536,0.535527 -4.11465,1.032417 -4.35398,1.104201 -0.79511,0.238485 -1.20664,-0.567137 -1.38688,-2.714993 -0.0954,-1.136986 -0.76636,-11.294589 -1.491,-22.572453 -0.72463,-11.277865 -1.49776,-23.021039 -1.71807,-26.095941 -0.22031,-3.074903 -0.32693,-5.782612 -0.23694,-6.017131 0.2641,-0.688218 6.13408,-2.300874 7.06908,-1.942081 0.23611,0.09061 0.86579,1.031499 1.39928,2.090878 l 0.96999,1.926143 0.95755,-1.964624 c 1.28874,-2.644153 3.06677,-4.542123 5.27218,-5.627844 1.63319,-0.804018 1.9502,-0.866259 4.41105,-0.866071 2.37296,1.83e-4 2.79446,0.07564 4.01369,0.718495 3.22355,1.699672 4.8555,5.405093 5.37843,12.211957 0.33169,4.31768 1.68776,24.143287 2.36072,34.51376 0.27685,4.266306 0.55738,7.810932 0.62339,7.876948 0.066,0.06602 1.11963,-0.338532 2.34135,-0.898996 1.22172,-0.560464 2.79199,-1.235959 3.48948,-1.501098 l 1.26817,-0.482073 -0.89,-0.733613 c -1.06755,-0.879967 -2.32227,-3.167436 -3.05975,-5.578202 -1.12527,-3.678434 -1.60366,-15.509613 -0.75565,-18.688344 1.01937,-3.821097 3.08645,-6.550832 6.31993,-8.345948 2.6973,-1.497446 4.36125,-1.860695 7.71335,-1.683858 l 2.87918,0.151889 -0.15966,-1.901394 c -0.0878,-1.045765 -0.28674,-3.865925 -0.44206,-6.267018 -0.15532,-2.401094 -0.40303,-4.750716 -0.55046,-5.221383 -0.59123,-1.887429 -2.78888,-2.487303 -4.84522,-1.322554 -1.56246,0.885007 -2.03737,1.907563 -2.14922,4.6277 -0.0682,1.657564 -0.2062,2.387277 -0.49097,2.595509 -0.59288,0.433517 -9.07087,2.582138 -9.51543,2.411542 -0.86131,-0.330514 -0.86804,-6.048237 -0.011,-9.338654 1.01836,-3.909755 4.00268,-7.760948 7.38937,-9.535821 3.52918,-1.849543 8.97073,-2.944363 12.12791,-2.440085 3.03164,0.484222 5.38427,2.260047 6.64119,5.012928 1.39381,3.052712 1.69635,6.050449 3.49232,34.603642 0.9245,14.698162 0.97012,15.993951 0.5733,16.284114 -0.23712,0.173387 -1.736,0.649508 -3.33084,1.058045 -2.23004,0.571254 -3.02204,0.67732 -3.42945,0.459283 -0.29136,-0.155933 -0.93168,-1.060805 -1.42292,-2.010828 -0.49125,-0.950024 -0.95271,-1.724555 -1.02547,-1.721181 -0.0728,0.0034 -0.48741,0.806606 -0.92143,1.784958 -0.75231,1.69581 -3.21607,4.616577 -4.43741,5.260518 -0.43044,0.226941 -0.39688,0.444148 0.46325,2.998231 0.51002,1.514462 0.83791,2.828851 0.72864,2.920866 -0.10927,0.09201 -0.73446,0.318894 -1.3893,0.504182 -2.53531,0.717359 -11.72222,4.147579 -16.05509,5.994664 -14.79705,6.3079287 -29.826,15.5860194 -41.75638,25.778219 -4.21095,3.597447 -12.298687,11.754218 -15.720149,15.854341 -15.919354,19.077009 -27.383527,43.183048 -32.546254,68.435916 -2.121524,10.377168 -2.935509,18.393848 -3.116971,30.697938 -0.231892,15.72351 0.825994,27.54629 3.796847,42.43291 4.730694,23.705 12.357555,43.46469 22.977911,59.53125 17.034834,25.77044 39.551656,40.34753 67.074246,43.42299 4.43081,0.49511 14.62749,0.42352 19.31458,-0.1356 29.52312,-3.52187 52.64544,-16.73265 66.73395,-38.12802 2.47141,-3.75317 6.34074,-11.41312 8.01905,-15.875 6.87648,-18.28138 8.05615,-40.59602 3.28002,-62.04479 -4.8275,-21.67949 -14.45821,-40.4099 -27.48811,-53.46063 -10.20053,-10.216835 -22.04411,-16.253764 -36.65429,-18.683483 -4.15929,-0.691703 -15.87425,-0.692777 -20.24062,-0.0019 -20.73751,3.281434 -37.91842,15.042413 -47.07114,32.221953 -0.74475,1.39789 -1.57948,2.74559 -1.85496,2.9949 -0.4801,0.43448 -0.50859,0.41821 -0.68657,-0.39212 -0.2705,-1.23161 0.39566,-15.36149 0.95356,-20.22564 3.05453,-26.631671 16.4977,-48.637091 38.08145,-62.336353 6.25881,-3.972478 11.74783,-6.501908 25.7912,-11.884996 4.65667,-1.784987 8.50145,-3.273004 8.54397,-3.306707 0.0425,-0.0337 -1.48802,-6.118518 -3.40119,-13.521814 -4.19275,-16.2244483 -5.89742,-23.402898 -5.6168,-23.652644 0.29146,-0.259384 67.54201,-17.019762 67.6915,-16.870272 0.0667,0.06668 -7.07573,8.38255 -15.87203,18.479698 -8.79631,10.0971483 -15.9537,18.3980402 -15.90531,18.4464246 0.0484,0.048387 1.73821,0.8579908 3.75516,1.799119 6.95839,3.2468424 10.81302,5.4607644 19.4611,11.1775424 36.86538,24.36972 61.33187,64.268614 66.46788,108.392922 1.42076,12.20599 1.22434,26.79406 -0.52728,39.15833 -4.60944,32.53727 -20.42213,63.53672 -44.20031,86.65104 -24.84863,24.15487 -55.76119,38.49585 -90.98002,42.20747 -4.66605,0.49176 -19.59519,0.72853 -24.34167,0.38611 z m 23.7293,-331.235977 c 2.03525,-1.398858 2.50486,-3.120115 2.0622,-7.558635 -0.47532,-4.766136 -0.92043,-5.538992 -3.17046,-5.505048 -1.85035,0.02791 -3.47536,1.030592 -4.2442,2.618798 -0.55147,1.139187 -0.57907,1.440685 -0.40611,4.435509 0.25541,4.422357 0.48138,5.448904 1.36721,6.210861 0.62396,0.536708 0.94368,0.61444 2.12445,0.516523 0.8599,-0.07131 1.72438,-0.34512 2.26691,-0.718008 z m -4.01784,269.181317 c -5.53148,-1.18689 -10.65484,-4.01963 -16.66575,-9.21459 -11.77147,-10.1736 -21.11033,-30.1947 -23.01388,-49.33831 -0.35329,-3.55293 -0.34881,-11.06781 0.009,-14.74266 1.09291,-11.23138 5.30479,-21.32319 11.48186,-27.51102 3.24713,-3.25279 5.98487,-4.96012 10.19731,-6.35933 2.10546,-0.69935 2.52751,-0.74681 6.61458,-0.74388 4.00784,0.003 4.56077,0.0629 6.74687,0.73254 5.61509,1.71994 11.01486,5.0548 16.05883,9.91779 4.6437,4.47707 7.89901,8.77976 11.50944,15.21249 7.29152,12.99136 11.42948,30.73165 10.40771,44.61999 -0.65109,8.85003 -2.28543,15.42079 -5.36412,21.56619 -5.44812,10.87507 -13.36202,16.33072 -23.57315,16.25084 -1.47879,-0.0116 -3.46261,-0.18708 -4.4085,-0.39005 z M 59.393303,4.4872928 C 54.872489,2.8711411 53.211935,-0.18189129 52.456934,-8.2656476 51.839793,-14.873328 49.523996,-50.246127 49.529547,-52.980231 c 0.0093,-4.560861 1.733785,-8.915352 4.680783,-11.819146 3.181527,-3.134889 8.711409,-5.205952 13.967182,-5.231021 2.322388,-0.01109 2.828512,0.07285 4.140189,0.686567 2.978277,1.393494 4.698333,3.883348 5.539163,8.018166 0.529285,2.602793 1.036272,8.066452 1.036272,11.167655 0,1.774529 -0.05402,1.973977 -0.595312,2.197965 -1.32434,0.548018 -8.964933,2.431238 -9.316559,2.296306 -0.485793,-0.186415 -0.591925,-0.926225 -0.929094,-6.476437 -0.346692,-5.706978 -0.753743,-6.663531 -2.833828,-6.659411 -2.323425,0.0046 -4.635886,1.651952 -4.993299,3.557129 -0.294698,1.570871 2.541762,45.060851 3.065854,47.0071846 0.347512,1.2905581 1.121598,1.8217091 2.654911,1.8217091 1.824892,0 3.388876,-0.9295844 4.193032,-2.4922109 l 0.651396,-1.2657848 -0.337716,-5.587212 c -0.330108,-5.461296 -0.325903,-5.596776 0.186481,-6.01168 0.288308,-0.23346 2.506387,-0.940776 4.92906,-1.571813 3.441189,-0.896334 4.474871,-1.07747 4.724865,-0.827952 0.739487,0.738076 0.978072,14.4188917 0.297463,17.0570044 -1.376018,5.3335899 -5.338595,9.0129413 -12.016003,11.1571616 -3.023254,0.9708118 -7.148401,1.1700113 -9.181084,0.4433438 z m 31.518351,-8.7992611 c -3.940326,-1.515954 -5.643946,-5.1565704 -6.484543,-13.8573957 -0.37483,-3.879773 -0.137809,-8.700299 0.562401,-11.438088 1.3204,-5.16272 4.725958,-8.539192 9.825254,-9.741345 1.899626,-0.447834 4.701963,-0.521078 5.974384,-0.156154 l 0.85815,0.246115 -2.6e-4,-1.106011 c -5.3e-4,-2.316467 -0.81026,-11.727778 -1.07928,-12.5451 -0.616043,-1.871638 -2.37585,-2.392383 -4.484643,-1.327054 -1.810387,0.914572 -2.373315,1.968082 -2.373315,4.441586 0,1.569181 -0.108294,2.174161 -0.463021,2.586676 -0.531214,0.617754 -8.122472,2.778905 -9.28725,2.643983 -0.640133,-0.07415 -0.719683,-0.217172 -0.92805,-1.6686 -0.310319,-2.16159 0.189273,-6.574361 1.01223,-8.940773 2.315699,-6.658795 8.551542,-10.533377 17.074429,-10.609035 2.93771,-0.02609 3.44329,0.03765 4.52433,0.570325 3.41562,1.683004 5.24874,5.413328 5.7804,11.762838 0.14957,1.786342 0.63156,8.843833 1.07109,15.683312 0.43952,6.839479 1.03557,15.760636 1.32454,19.824792 0.60235,8.4715195 0.67099,8.1203936 -1.6836,8.6118598 -0.74771,0.1560644 -2.06419,0.5025231 -2.92552,0.7699057 -0.86133,0.2673853 -1.76196,0.4349194 -2.00142,0.3723005 -0.23945,-0.062619 -0.88473,-1.0219928 -1.43395,-2.131944 l -0.99857,-2.018091 -0.99803,1.89665 c -0.54892,1.043157 -1.32388,2.3238515 -1.72213,2.8459855 -2.421052,3.1741666 -7.521317,4.6768623 -11.143626,3.2832622 z m 9.090496,-11.7729237 c 2.64364,-1.10431 3.20145,-2.753585 2.74088,-8.103896 -0.40436,-4.697294 -1.03781,-5.550355 -3.812539,-5.134258 -1.629719,0.24439 -2.843445,1.103034 -3.588559,2.5387 -0.576167,1.110147 -0.605856,1.386698 -0.450416,4.195395 0.233347,4.216419 0.528151,5.600896 1.345679,6.319658 0.813046,0.714819 2.318644,0.788561 3.764955,0.184401 z m 82.88959,-14.252543 c -0.20492,-0.246925 -0.75906,-7.125483 -1.6146,-20.042187 -4.02716,-60.801138 -3.70822,-54.613138 -2.83453,-54.995188 0.93114,-0.40716 8.08675,-2.37417 8.63679,-2.37417 0.27098,0 0.63011,0.16558 0.79807,0.36796 0.19627,0.2365 0.67934,6.26276 1.35207,16.867186 0.57568,9.074576 1.22699,18.94001 1.44734,21.923187 0.22036,2.983177 0.82041,11.733826 1.33345,19.445885 0.51304,7.712059 0.99737,14.43909 1.07629,14.948958 0.0884,0.571215 0.009,1.096087 -0.20573,1.367483 -0.21158,0.266857 -2.15942,0.918618 -4.94206,1.653646 -2.52605,0.667258 -4.62484,1.213194 -4.66395,1.213194 -0.0391,0 -0.21153,-0.16918 -0.38314,-0.375954 z"
         id="path1394"
         inkscape:connector-curvature="0" />
      <path
         style="fill:#967e35;stroke-width:0.26458332"
         d="m 141.46709,296.79459 c -11.01151,-0.79446 -22.07701,-2.74626 -32.27916,-5.69364 C 61.325949,277.27385 23.012411,240.20194 7.5986031,192.80385 -4.0546486,156.96961 -2.005369,118.38437 13.383665,83.878725 18.806496,71.719529 26.511211,59.476467 35.655824,48.487477 39.366446,44.028462 49.495984,33.895923 53.890012,30.247885 72.341976,14.92859 92.935666,4.382703 114.87647,-0.98285647 c 1.52797,-0.37366043 3.01625,-0.78054463 3.30729,-0.90418703 0.29104,-0.1236425 2.0714,-1.331521 3.95636,-2.6841715 5.90531,-4.2376777 12.98749,-8.691777 18.66551,-11.739041 1.23693,-0.663832 2.18031,-1.208955 2.09641,-1.211387 -0.0839,-0.0024 -1.44355,0.358084 -3.02144,0.801148 -2.34447,0.658317 -2.93035,0.742955 -3.20515,0.463021 -0.24184,-0.246365 -0.71218,-6.285977 -1.67503,-21.509215 -0.73632,-11.641667 -1.40974,-21.815142 -1.49648,-22.607722 -0.1288,-1.176864 -0.32433,-1.607677 -1.06657,-2.349921 -0.84643,-0.846426 -0.99254,-0.897398 -2.12675,-0.741939 -0.66983,0.09181 -1.69731,0.434901 -2.2833,0.762423 -1.59208,0.889847 -2.12939,1.777579 -2.24383,3.707196 -0.10883,1.835312 1.53193,29.167346 2.31178,38.509824 0.32308,3.870396 0.41142,6.14535 0.25032,6.446363 -0.13692,0.255847 -0.69341,0.581922 -1.23664,0.724612 -3.80006,0.998151 -7.51896,1.875205 -7.95128,1.875205 -0.28173,0 -0.63354,-0.148828 -0.78179,-0.330729 -0.15082,-0.185055 -0.99022,-11.460252 -1.90573,-25.598437 -0.8999,-13.89724 -1.73753,-26.517864 -1.8614,-28.045833 -0.17325,-2.136984 -0.14618,-2.900246 0.11732,-3.307292 0.425,-0.656553 5.58944,-2.137563 6.58371,-1.888019 0.48412,0.121507 0.92251,0.681038 1.66754,2.128311 l 1.01075,1.963468 0.98529,-2.096162 c 1.1989,-2.550628 3.12288,-4.578061 5.38123,-5.6706 1.40343,-0.678942 1.87895,-0.769096 4.10104,-0.777497 2.22888,-0.0084 2.68458,0.07449 4.02376,0.732116 2.32353,1.141002 3.77672,3.292025 4.72261,6.990418 0.34744,1.358469 0.68409,4.515213 1.04879,9.834317 1.31994,19.251297 2.10482,31.11542 2.273,34.358127 0.11513,2.219944 0.28654,3.505729 0.46735,3.505729 0.15704,0 1.80435,-0.679852 3.66068,-1.510784 l 3.37515,-1.510784 -1.0661,-1.055539 c -1.21104,-1.199058 -2.39645,-3.51282 -2.99445,-5.844768 -0.94376,-3.680267 -1.28779,-14.974863 -0.5513,-18.099333 1.09062,-4.626859 4.87345,-8.414729 9.68153,-9.694447 1.61355,-0.429461 4.3548,-0.488855 5.91093,-0.128069 0.578,0.134006 1.10352,0.191029 1.16784,0.126714 0.0643,-0.06432 -0.0821,-2.989442 -0.32535,-6.500286 -0.59699,-8.616177 -0.88635,-9.250659 -4.05603,-8.893392 -2.48094,0.279638 -3.57914,1.827946 -3.74412,5.278655 -0.0869,1.818486 -0.2078,2.388417 -0.54215,2.556692 -0.23664,0.1191 -2.42847,0.730607 -4.87074,1.358908 -3.21925,0.828188 -4.52021,1.06262 -4.73041,0.852416 -0.45616,-0.456155 -0.33598,-7.023608 0.16334,-8.926607 0.57048,-2.174148 2.02638,-5.040982 3.3178,-6.533074 2.95925,-3.419094 8.82637,-5.770051 14.39992,-5.770051 2.76094,0 4.61358,0.624935 6.32899,2.134899 2.38486,2.099238 3.33289,5.413052 4.0065,14.004684 0.39938,5.093922 2.52168,37.851434 2.51383,38.800733 -0.008,0.933217 -0.46292,1.195488 -3.39961,1.958755 -3.5898,0.933008 -3.84149,0.859269 -5.08987,-1.491202 -0.49455,-0.931143 -0.96198,-1.693992 -1.03874,-1.69522 -0.0768,-0.0013 -0.48093,0.781354 -0.89816,1.739072 -0.7447,1.70942 -2.90027,4.265602 -4.36058,5.171006 l -0.6358,0.3942 0.95199,2.842919 c 0.66412,1.983263 0.85638,2.872647 0.6358,2.94123 -0.1739,0.05407 -0.79244,0.24158 -1.37452,0.416681 -2.84019,0.85439 -11.87371,4.238057 -15.9228,5.964169 -14.79704,6.3079287 -29.82599,15.5860194 -41.75637,25.778219 -4.21095,3.597447 -12.298687,11.754218 -15.720149,15.854341 -15.919354,19.077009 -27.383527,43.183048 -32.546254,68.435916 -2.121524,10.377168 -2.935509,18.393848 -3.116971,30.697938 -0.231892,15.72351 0.825994,27.54629 3.796847,42.43291 4.730694,23.705 12.357555,43.46469 22.977911,59.53125 17.034834,25.77044 39.551656,40.34753 67.074246,43.42299 4.43081,0.49511 14.62749,0.42352 19.31458,-0.1356 29.52312,-3.52187 52.64544,-16.73265 66.73395,-38.12802 2.47141,-3.75317 6.34074,-11.41312 8.01905,-15.875 6.87648,-18.28138 8.05615,-40.59602 3.28002,-62.04479 -4.8275,-21.67949 -14.45821,-40.4099 -27.48811,-53.46063 -10.20053,-10.216835 -22.04411,-16.253764 -36.65429,-18.683483 -4.15929,-0.691703 -15.87425,-0.692777 -20.24062,-0.0019 -20.73751,3.281434 -37.91842,15.042413 -47.07114,32.221953 -0.74475,1.39789 -1.57948,2.74559 -1.85496,2.9949 -0.4801,0.43448 -0.50859,0.41821 -0.68657,-0.39212 -0.2705,-1.23161 0.39566,-15.36149 0.95356,-20.22564 3.05453,-26.631671 16.4977,-48.637091 38.08145,-62.336353 6.25881,-3.972478 11.74783,-6.501908 25.7912,-11.884996 4.65667,-1.784987 8.50145,-3.273004 8.54397,-3.306707 0.0425,-0.0337 -1.46259,-6.058987 -3.3447,-13.389522 -3.31107,-12.8961835 -5.87157,-23.547105 -5.70747,-23.741454 0.087,-0.102987 67.68943,-16.946237 67.74859,-16.879652 0.0199,0.02244 -7.16486,8.298399 -15.96618,18.391055 -8.80132,10.0926528 -15.90184,18.4403707 -15.77893,18.5504824 0.12291,0.110109 1.71175,0.8775356 3.53076,1.705393 10.19781,4.6411566 22.77526,12.6848706 32.5739,20.8321326 29.83829,24.809603 49.03865,60.245074 53.52434,98.782541 1.42076,12.20599 1.22434,26.79406 -0.52728,39.15833 -4.60944,32.53727 -20.42213,63.53672 -44.20031,86.65104 -24.84863,24.15487 -55.76119,38.49585 -90.98002,42.20747 -4.66605,0.49176 -19.59519,0.72853 -24.34167,0.38611 z m 23.40116,-330.982022 c 2.1548,-1.099296 2.81442,-2.80783 2.54008,-6.579243 -0.42287,-5.813282 -0.91914,-6.803962 -3.39204,-6.771386 -1.6801,0.02215 -2.83273,0.58969 -3.81625,1.879132 -0.63535,0.832966 -0.75459,1.264475 -0.83437,3.019417 -0.11302,2.485832 0.36828,7.198693 0.80688,7.901008 0.7194,1.151943 2.99453,1.418945 4.6957,0.551072 z m -3.6897,268.927362 c -5.53148,-1.18689 -10.65484,-4.01963 -16.66575,-9.21459 -11.77147,-10.1736 -21.11033,-30.1947 -23.01388,-49.33831 -0.35329,-3.55293 -0.34881,-11.06781 0.009,-14.74266 1.09291,-11.23138 5.30479,-21.32319 11.48186,-27.51102 3.24713,-3.25279 5.98487,-4.96012 10.19731,-6.35933 2.10546,-0.69935 2.52751,-0.74681 6.61458,-0.74388 4.00784,0.003 4.56077,0.0629 6.74687,0.73254 5.61509,1.71994 11.01486,5.0548 16.05883,9.91779 4.6437,4.47707 7.89901,8.77976 11.50944,15.21249 7.29152,12.99136 11.42948,30.73165 10.40771,44.61999 -0.65109,8.85003 -2.28543,15.42079 -5.36412,21.56619 -5.44812,10.87507 -13.36202,16.33072 -23.57315,16.25084 -1.47879,-0.0116 -3.46261,-0.18708 -4.4085,-0.39005 z M 59.830056,4.6210661 C 58.304043,4.1867976 57.062726,3.4163468 55.826087,2.135909 c -2.155311,-2.23164666 -2.875565,-4.8946117 -3.521355,-13.019347 -1.012637,-12.740095 -2.577917,-37.625927 -2.597899,-41.303043 -0.02053,-3.776805 0.03392,-4.270028 0.688555,-6.238454 2.133317,-6.414653 6.91806,-10.001493 15.21063,-11.402515 4.027194,-0.680389 7.036313,0.07534 9.2955,2.334522 2.297899,2.297901 3.251118,5.788012 3.765831,13.788186 0.278148,4.323244 0.269041,5.027983 -0.06935,5.366377 -0.564803,0.564804 -9.453538,2.913206 -9.78227,2.584474 -0.144147,-0.144148 -0.424775,-2.632713 -0.62362,-5.530149 -0.198845,-2.897436 -0.484317,-5.583473 -0.634386,-5.968971 -0.657006,-1.687734 -2.725812,-2.022543 -5.069581,-0.820449 -1.838322,0.942859 -2.380419,1.936599 -2.380419,4.363665 0,1.990484 2.54177,41.63057 2.803657,43.7243557 0.238673,1.9081618 0.745366,2.9488898 1.668,3.4260023 1.613275,0.8342577 4.431641,-0.2405883 5.528664,-2.1084778 0.596064,-1.0149178 0.613206,-1.2010337 0.4747,-5.1539832 -0.07903,-2.255572 -0.216443,-4.815416 -0.305356,-5.688541 -0.115062,-1.129954 -0.05968,-1.721131 0.192151,-2.051143 0.465069,-0.609441 9.391729,-3.039687 9.771239,-2.660176 0.403927,0.403926 0.836888,8.200829 0.702387,12.648819 -0.133289,4.4078813 -0.597037,6.186937 -2.307632,8.8526696 -1.876817,2.92476238 -5.983888,5.5977763 -10.59031,6.8925069 -2.479178,0.6968252 -6.560209,0.9197896 -8.215164,0.4488286 z m 31.584269,-8.7524139 c -3.461015,-1.1362293 -5.110903,-3.418414 -6.14495,-8.4999252 -1.081056,-5.312523 -1.213395,-12.877987 -0.296061,-16.925004 1.075227,-4.743582 4.829817,-8.555106 9.530238,-9.674746 1.639528,-0.390535 4.966287,-0.489373 6.324058,-0.187886 l 0.90009,0.199861 -0.18331,-3.904027 c -0.22943,-4.886095 -0.62617,-8.936006 -0.98498,-10.054773 -0.35284,-1.10014 -1.154722,-1.654466 -2.393339,-1.654466 -3.061087,0 -4.842209,2.337422 -4.665573,6.122773 0.06687,1.43314 -0.2901,1.975591 -1.462624,2.222582 -0.462886,0.09751 -2.32873,0.581409 -4.146317,1.075341 -1.81759,0.493929 -3.571492,0.898054 -3.897564,0.898054 -0.838049,0 -0.957223,-0.742693 -0.799015,-4.979434 0.101938,-2.729847 0.26978,-3.995119 0.682836,-5.147572 0.991608,-2.76665 2.173748,-4.639408 4.039555,-6.399517 3.288456,-3.102163 7.910642,-4.735939 13.465351,-4.759518 2.80059,-0.01188 3.14931,0.04334 4.38241,0.694134 3.50398,1.849279 5.11322,5.372259 5.65949,12.389824 0.15292,1.964531 0.70198,10.120312 1.22012,18.123958 0.51815,8.003646 1.10032,16.635677 1.29371,19.182291 0.28252,3.720211 0.28634,4.734209 0.0195,5.159375 -0.24158,0.3848792 -1.16522,0.7377513 -3.38738,1.2941304 -1.68037,0.4207298 -3.24025,0.693965 -3.46638,0.607187 -0.22614,-0.086775 -0.84351,-1.0163148 -1.37194,-2.0656414 l -0.96079,-1.907866 -1.09904,2.090558 c -2.12419,4.0405656 -5.145227,6.1500462 -9.102888,6.3562148 -1.302123,0.067834 -2.4535,-0.025559 -3.155172,-0.2559076 z m 8.710865,-11.8009032 c 0.51278,-0.01638 2.32107,-1.998517 2.60325,-2.853534 0.35594,-1.078511 0.15148,-6.899434 -0.30144,-8.581821 -0.35286,-1.310733 -1.35597,-2.066251 -2.733609,-2.058898 -2.244683,0.01199 -4.454361,1.668108 -4.818996,3.611785 -0.207084,1.103842 0.06726,6.349188 0.41063,7.851206 0.438542,1.918316 1.682599,2.666219 3.716444,2.234253 0.509322,-0.108173 1.014991,-0.19952 1.123721,-0.202991 z m 82.80869,-14.354413 c -0.17669,-0.212892 -0.86672,-9.076328 -1.76724,-22.700062 -0.81255,-12.292939 -1.89182,-28.588671 -2.39836,-36.212743 -0.99863,-15.030641 -1.01283,-15.349441 -0.70517,-15.833811 0.20605,-0.32441 8.2172,-2.70877 9.11642,-2.71333 0.25778,-10e-4 0.58481,0.26552 0.72672,0.59294 0.14192,0.32742 0.73414,8.155784 1.31605,17.396356 0.5819,9.240573 1.2381,19.182292 1.4582,22.092709 0.42696,5.645657 1.89687,27.507345 2.1627,32.165541 l 0.15961,2.796788 -0.76473,0.300347 c -0.42061,0.16519 -2.49115,0.738013 -4.6012,1.272943 -2.11005,0.534929 -3.96621,1.021871 -4.1248,1.082092 -0.15858,0.06022 -0.41877,-0.04767 -0.5782,-0.23977 z"
         id="path1392"
         inkscape:connector-curvature="0" />
      <path
         style="fill:#000100;stroke-width:0.26458332;fill-opacity:1"
         d="M 144.5098,296.90739 C 132.96991,296.1256 127.0412,295.3392 118.48403,293.45529 100.67588,289.53472 82.936041,281.97343 67.556691,271.74842 31.979558,248.09486 7.7848,209.89037 1.7839661,167.89065 0.58238696,159.48082 0.44418123,157.20763 0.44418123,145.85414 c 0,-11.07079 0.14665787,-13.63592 1.21017477,-21.16666 C 7.0711224,86.331468 26.877383,51.733803 57.277983,27.523876 78.286118,10.793763 103.87933,-0.23408829 130.16525,-3.8824966 c 1.64211,-0.2279201 3.17984,-0.414401 3.41716,-0.414401 0.23733,0 -1.4634,1.0829369 -3.77941,2.4065282 C 117.93359,4.8929784 107.70683,12.67335 98.189735,22.160546 88.989784,31.331597 82.503352,39.722747 75.998057,50.868727 53.864147,88.792313 48.448615,133.31466 60.118481,181.4184 c 6.367491,26.24709 16.577801,47.25596 30.87178,63.5222 15.400259,17.52515 33.226709,27.21928 55.768499,30.32726 5.24249,0.72278 16.26052,0.66487 22.06503,-0.116 16.15976,-2.17397 31.1107,-7.49411 42.6243,-15.16745 5.03064,-3.35269 8.14335,-5.87113 12.13962,-9.82191 13.50873,-13.35498 21.29864,-29.9102 24.11963,-51.2594 0.70511,-5.3363 0.97264,-16.04444 0.54204,-21.69583 -0.98768,-12.96281 -4.03158,-25.96386 -9.01317,-38.49688 -7.19127,-18.09228 -18.86794,-33.33814 -32.07007,-41.872886 -18.99367,-12.278786 -43.22569,-13.911136 -64.25635,-4.328517 -6.68077,3.044089 -12.59818,7.091642 -17.80858,12.181193 -4.80569,4.69423 -7.97693,8.88638 -10.89965,14.40854 -0.79552,1.50305 -1.66761,2.93301 -1.93797,3.17769 -0.47021,0.42553 -0.49928,0.39675 -0.66855,-0.66184 -0.0973,-0.60868 -0.11109,-2.24988 -0.0306,-3.64711 0.0805,-1.39722 0.26759,-5.04071 0.41572,-8.09665 0.74077,-15.282561 3.4547,-26.452994 9.22452,-37.967708 7.48516,-14.937994 18.19377,-26.206061 32.95172,-34.673252 5.28141,-3.03014 10.45326,-5.285115 23.95545,-10.4448 3.71078,-1.418026 6.78446,-2.609691 6.83038,-2.648145 0.0459,-0.03845 -1.47714,-6.109423 -3.38459,-13.491046 -1.90746,-7.3816212 -3.42019,-13.469046 -3.36163,-13.5276115 0.0586,-0.058563 2.11512,0.3136503 4.57013,0.8271457 39.67527,8.2985609 75.08947,33.0979748 96.75695,67.7557458 22.96211,36.728541 29.02503,81.512591 16.69926,123.349511 -5.95749,20.22129 -16.16684,38.88171 -30.44907,55.65431 -3.33862,3.92076 -12.0883,12.64428 -15.95935,15.91165 -24.73948,20.88136 -52.8005,32.74126 -84.66666,35.78399 -4.12036,0.39344 -17.47133,0.72128 -20.6375,0.50679 z m 16.40417,-62.25072 c -7.42087,-1.626 -16.09375,-7.59653 -22.46681,-15.46648 -5.3105,-6.55783 -10.19929,-16.00941 -13.36328,-25.83545 -5.26679,-16.35644 -5.16574,-34.59639 0.26349,-47.56119 5.14204,-12.27899 13.9416,-19.13342 24.54352,-19.11822 7.56823,0.0108 15.32094,3.70591 22.753,10.84444 5.28479,5.07608 9.00784,10.30912 12.9562,18.21098 6.39377,12.79591 9.15696,25.06215 8.83131,39.2036 -0.18531,8.04691 -1.1078,13.50968 -3.24946,19.24262 -4.11166,11.00635 -10.68055,17.92041 -19.20787,20.21718 -2.87982,0.77568 -8.14749,0.90069 -11.0601,0.26252 z M 60.463254,4.7035632 C 57.802953,4.1395403 55.477398,2.2986383 54.294732,-0.17941743 52.898293,-3.1053942 52.727306,-4.7587252 50.694793,-34.988564 c -1.102442,-16.396801 -1.186098,-19.769407 -0.551278,-22.225 1.21688,-4.707093 4.032062,-8.274523 8.112122,-10.279771 4.602112,-2.261825 10.420379,-3.06773 13.588888,-1.882238 3.962117,1.482418 5.873903,5.117536 6.491205,12.342548 0.579853,6.786678 0.627105,8.428331 0.251429,8.735321 -0.195514,0.159766 -2.405113,0.825924 -4.910217,1.480349 -3.423033,0.894221 -4.618939,1.112502 -4.813133,0.87851 -0.142121,-0.171241 -0.387824,-2.391154 -0.546013,-4.933138 -0.364082,-5.850649 -0.417338,-6.158579 -1.232664,-7.127542 -0.583351,-0.693271 -0.851117,-0.801539 -1.982346,-0.801539 -1.388459,0 -2.931308,0.520174 -3.755699,1.266238 -1.00234,0.907103 -1.323245,1.951977 -1.290627,4.202305 0.05726,3.950356 2.696884,43.325658 2.990027,44.6022069 0.332748,1.4490144 1.462294,2.5821719 2.571639,2.5798568 1.884844,-0.00394 3.906078,-1.138264 4.650194,-2.6097283 0.611802,-1.2098152 0.66493,-2.4228584 0.320186,-7.3106704 -0.361969,-5.131985 -0.338034,-5.558671 0.327057,-5.830565 1.222502,-0.499766 9.013533,-2.416124 9.240665,-2.272924 0.309882,0.195374 0.855575,7.704426 0.848982,11.682447 -0.01185,7.1413766 -2.593245,11.76848136 -8.173313,14.6504738 -4.045926,2.0896395 -9.359508,3.1829666 -12.368643,2.5449874 z m 31.749999,-8.7335703 c -2.525845,-0.5301906 -4.616048,-2.2624045 -5.749523,-4.7648072 -0.362529,-0.8003645 -0.933138,-2.8244267 -1.268018,-4.4979167 -0.525725,-2.627191 -0.608409,-3.837609 -0.605478,-8.863541 0.0028,-4.80236 0.08726,-6.121747 0.482714,-7.540625 1.406435,-5.04624 4.910304,-8.47837 9.733668,-9.534385 0.91766,-0.200909 2.576857,-0.27885 4.302414,-0.202105 l 2.80872,0.124915 -0.13405,-1.610357 c -0.0737,-0.885698 -0.25794,-3.51536 -0.40935,-5.843693 -0.35653,-5.482402 -0.62877,-6.849862 -1.500177,-7.53531 -0.935114,-0.73556 -2.803017,-0.706263 -4.165251,0.06533 -1.577004,0.893241 -2.085128,1.984216 -2.217938,4.762056 -0.132808,2.777789 0.421235,2.376757 -5.43774,3.935984 -5.127742,1.364625 -4.926775,1.471199 -4.926775,-2.612703 0,-5.518113 1.40411,-9.430424 4.493191,-12.519506 3.194399,-3.194399 8.228954,-5.067139 13.76306,-5.119545 2.53364,-0.024 2.91042,0.03866 4.28138,0.711904 1.70881,0.839147 2.825,1.990807 3.80622,3.927134 1.32607,2.616874 1.63652,4.659741 2.3552,15.497937 0.37432,5.645091 0.97875,14.669113 1.34318,20.053384 1.02053,15.077895 1.03322,15.373223 0.67032,15.5975104 -0.33873,0.2093462 -4.59892,1.3672873 -6.02096,1.6365325 -0.81993,0.155239 -0.86391,0.1131094 -1.77936,-1.7047259 -0.51625,-1.025147 -1.05334,-1.934792 -1.19353,-2.021433 -0.14019,-0.08664 -0.75119,0.796425 -1.35778,1.96237 -1.94926,3.7467167 -4.919465,5.8769379 -8.637792,6.1949856 -0.845169,0.07229 -2.031524,0.027564 -2.636345,-0.099391 z m 8.354277,-12.1622049 c 0.56937,-0.290468 1.31313,-0.917771 1.6528,-1.394008 0.58371,-0.81838 0.6165,-1.083625 0.59767,-4.834636 -0.031,-6.177671 -0.53833,-7.178214 -3.529906,-6.961825 -1.887577,0.136536 -3.435334,1.051957 -4.081732,2.414138 -0.773136,1.629264 -0.429524,9.006834 0.479973,10.305325 0.953979,1.361993 2.787853,1.538951 4.881195,0.471006 z m 17.7813,4.156252 c -0.17717,-0.482251 -3.17293,-44.721605 -3.67108,-54.212053 -0.15829,-3.015586 -0.42828,-2.737893 3.69755,-3.803036 3.33883,-0.861973 3.25102,-0.896059 4.60181,1.786242 0.50174,0.99633 1.02748,1.740296 1.16831,1.653262 0.14082,-0.08704 0.25605,-0.276963 0.25605,-0.422056 0,-0.719844 1.76257,-3.69004 2.85959,-4.818829 2.84571,-2.928134 6.26117,-3.939032 9.87894,-2.923937 3.78827,1.062934 5.97305,4.793879 6.57856,11.234182 0.30817,3.2777 1.47381,20.213597 2.41645,35.109152 0.51341,8.112866 0.54092,9.381617 0.21033,9.700363 -0.3807,0.367062 -8.29053,2.529522 -9.25247,2.529522 -0.31477,0 -0.55996,-0.228234 -0.63953,-0.595312 -0.071,-0.327422 -0.72979,-10.179844 -1.46405,-21.894271 -0.73425,-11.714427 -1.40356,-21.747014 -1.48734,-22.29464 -0.22927,-1.498444 -1.43115,-2.576193 -2.87291,-2.576193 -1.57192,0 -3.76321,1.177073 -4.43305,2.38125 -0.46886,0.842865 -0.50278,1.30628 -0.3776,5.159375 0.16751,5.156171 1.35712,24.889907 1.90601,31.617708 0.21964,2.692136 0.47152,6.153349 0.55972,7.691583 l 0.16036,2.796789 -0.76474,0.303792 c -0.95699,0.380169 -8.13066,2.172419 -8.69532,2.172419 -0.22929,0 -0.5153,-0.26789 -0.63559,-0.595312 z m 37.26537,-10.112592 c -1.82489,-0.588783 -3.29332,-2.008907 -4.33822,-4.195487 -1.24316,-2.601474 -1.64647,-4.422783 -1.98142,-8.947865 -0.80272,-10.844588 -0.0321,-14.789194 3.59441,-18.39854 3.33175,-3.315996 8.29004,-4.727355 12.7103,-3.617941 0.58057,0.145714 0.60627,0.08626 0.60426,-1.39785 -0.005,-3.747349 -0.77319,-11.991665 -1.19286,-12.803227 -0.52753,-1.020117 -1.96797,-1.679207 -3.13192,-1.433049 -2.6994,0.570886 -3.8752,2.227945 -3.8752,5.461336 0,1.402456 -0.11198,2.093669 -0.37447,2.311519 -0.20596,0.170931 -2.37536,0.83313 -4.82088,1.471554 -3.22285,0.841349 -4.53955,1.083461 -4.7849,0.87984 -0.50774,-0.42138 -0.44639,-6.116211 0.0915,-8.498279 0.68961,-3.053741 1.80871,-5.080886 4.06067,-7.355588 3.34549,-3.379267 7.63849,-5.032002 13.23903,-5.096817 2.94019,-0.03403 3.10638,-0.0052 4.81231,0.833191 1.98021,0.973249 2.91301,1.931427 3.83711,3.94149 1.42288,3.095006 1.7722,6.410201 3.38231,32.099451 0.5062,8.076406 0.99382,15.523279 1.0836,16.548608 0.12587,1.437584 0.0776,1.93534 -0.21114,2.174936 -0.46571,0.386503 -5.11293,1.647798 -6.07462,1.648706 -0.82631,7.94e-4 -1.39931,-0.642708 -2.31339,-2.597957 -0.3523,-0.753571 -0.70949,-1.369997 -0.79375,-1.369838 -0.0843,1.59e-4 -0.56258,0.910757 -1.06291,2.023552 -1.79342,3.988766 -5.14301,6.388528 -9.21082,6.598954 -1.34638,0.06965 -2.46187,-0.02672 -3.24904,-0.280699 z m 9.26852,-11.92571 c 0.9054,-0.462507 2.02487,-1.686499 2.36441,-2.585172 0.36222,-0.958678 0.35747,-3.649224 -0.0117,-6.663505 -0.43375,-3.541038 -1.01723,-4.371589 -3.06287,-4.359815 -2.00476,0.01154 -4.32335,1.651805 -4.75263,3.362201 -0.0941,0.374766 -0.10162,2.394289 -0.0168,4.487825 0.18188,4.48909 0.54659,5.577007 2.04005,6.085512 1.00288,0.341474 2.38887,0.20969 3.43958,-0.327046 z m 17.87183,3.252885 c -0.0714,-0.327421 -0.79044,-10.715625 -1.59776,-23.084895 -0.80732,-12.369271 -1.89158,-28.856707 -2.40946,-36.638751 l -0.94161,-14.149167 0.57927,-0.46906 c 0.3186,-0.25799 0.73372,-0.46906 0.92251,-0.46906 0.18878,0 2.04578,-0.48849 4.12665,-1.08552 l 3.78341,-1.08552 0.47425,0.58566 c 0.26083,0.32212 0.47424,0.9216 0.47424,1.33218 0,1.10664 1.77556,28.886264 2.38373,37.294863 0.28945,4.001823 0.88407,12.633854 1.32137,19.182291 0.43731,6.548438 0.86986,12.920411 0.96122,14.159939 0.12954,1.757524 0.0856,2.314779 -0.19959,2.531176 -0.40539,0.30761 -8.5646,2.497694 -9.29034,2.493698 -0.25889,-0.0013 -0.51445,-0.261307 -0.58789,-0.597834 z"
         id="path1390"
         inkscape:connector-curvature="0" />
    </g>
    <path
       style="fill:#ffffff;fill-opacity:1;stroke-width:1.42857146"
       d="m 564.52723,1520.2907 c -48.57003,-3.5699 -105.26597,-23.3511 -147.69651,-51.5313 -45.32214,-30.1006 -87.14432,-75.0632 -119.49006,-128.4626 -47.79653,-78.9069 -80.24173,-189.0416 -89.33496,-303.246 -2.27413,-28.5615 -1.00975,-103.92314 2.17455,-129.61111 10.42751,-84.11948 34.53772,-157.20672 75.82631,-229.85849 45.34723,-79.79339 105.2636,-141.03194 189.36034,-193.539 36.31988,-22.67686 70.63618,-39.38331 114.32956,-55.65991 22.85576,-8.51419 61.49593,-20.9426 65.11094,-20.9426 0.84129,0 1.84146,1.44642 2.22262,3.21428 0.38117,1.76786 9.4561,37.65583 20.16654,79.75105 10.71044,42.09521 19.47353,77.51397 19.47353,78.70834 0,1.50878 -10.35533,6.23055 -33.92857,15.4706 -44.16596,17.31178 -68.7964,28.56758 -88.47014,40.42975 -74.09959,44.67793 -125.85155,118.03063 -144.03552,204.15452 -5.28957,25.05273 -7.78031,49.087 -8.81918,85.10007 -1.04095,36.08451 -0.5843,37.27616 8.27175,21.58624 37.74815,-66.87675 91.3012,-106.24665 167.33705,-123.01898 13.037,-2.87577 18.56514,-3.23162 50.3589,-3.2417 32.21082,-0.01 37.17157,0.31494 50.56981,3.31457 83.52453,18.69961 144.86187,70.17533 190.09397,159.53126 37.32052,73.72661 55.59404,165.37761 48.56364,243.57141 -6.4764,72.0323 -29.746,134.0962 -68.57782,182.9088 -11.85718,14.9047 -38.23413,40.6225 -53.08429,51.7576 -43.7941,32.8381 -102.22661,56.5525 -163.99389,66.5556 -20.6419,3.3429 -62.43278,4.8214 -86.42857,3.0576 z m 81.42857,-152.1358 c 57.41233,-12.0125 94.24826,-82.1106 90.06403,-171.3901 -4.9183,-104.9421 -64.15064,-205.86549 -136.27107,-232.18619 -57.24048,-20.8902 -109.56568,11.3272 -132.25686,81.43249 -7.2851,22.5076 -9.92425,41.8204 -9.95615,72.8572 -0.0517,50.2267 10.19321,92.4223 34.16457,140.7142 14.26344,28.7347 26.46077,46.3877 44.96977,65.0841 23.75653,23.997 52.15971,40.7467 75.71429,44.6494 8.1556,1.3513 24.21902,0.7957 33.57142,-1.1611 z"
       id="path2051"
       inkscape:connector-curvature="0"
       transform="matrix(0.26458333,0,0,0.26458333,0,-127.1271)" />
  </g>
</svg>
